<?xml version="1.0" standalone="no"?>
<!DOCTYPE svg PUBLIC "-//W3C//DTD SVG 20010904//EN"
 "http://www.w3.org/TR/2001/REC-SVG-20010904/DTD/svg10.dtd">
<svg version="1.0" xmlns="http://www.w3.org/2000/svg"
 width="446.000000pt" height="446.000000pt" viewBox="0 0 446.000000 446.000000"
 preserveAspectRatio="xMidYMid meet">
<metadata>
Created by potrace 1.11, written by Peter Selinger 2001-2013
</metadata>
<g transform="translate(0.000000,446.000000) scale(0.100000,-0.100000)"
fill="#000000" stroke="none">
<path d="M2068 4445 c-1 -1 -35 -6 -74 -9 -39 -4 -82 -9 -95 -11 -13 -3 -37
-7 -54 -10 -106 -18 -244 -52 -295 -72 -8 -3 -19 -7 -25 -9 -23 -6 -145 -54
-200 -79 -33 -16 -64 -29 -70 -30 -13 -4 -227 -126 -242 -140 -7 -5 -35 -26
-64 -45 -94 -65 -163 -124 -285 -245 -102 -101 -264 -292 -264 -310 0 -3 -15
-27 -33 -53 -32 -46 -90 -142 -93 -152 0 -3 -21 -48 -47 -100 -52 -107 -107
-246 -107 -271 0 -8 -3 -19 -8 -23 -4 -4 -8 -12 -8 -17 -1 -5 -2 -10 -4 -11
-1 -2 -3 -12 -5 -22 -2 -11 -7 -31 -11 -45 -10 -36 -9 -33 -17 -66 -4 -16 -9
-41 -12 -55 -3 -14 -7 -36 -10 -50 -2 -14 -7 -45 -11 -70 -3 -25 -8 -58 -11
-75 -9 -61 -11 -402 -2 -465 4 -36 10 -85 13 -108 12 -86 47 -239 78 -337 17
-55 32 -102 33 -105 1 -3 6 -16 12 -30 6 -14 23 -54 38 -90 73 -175 202 -383
334 -540 161 -191 369 -367 576 -489 91 -53 270 -141 289 -141 6 0 16 -4 22
-9 20 -19 274 -95 384 -115 19 -3 46 -9 60 -12 114 -25 441 -36 585 -21 146
16 212 28 351 62 65 17 214 65 259 85 126 55 177 79 216 101 25 15 56 30 67
34 12 3 22 11 22 16 0 5 4 9 10 9 24 0 240 154 334 239 99 89 224 224 293 316
41 55 83 111 94 125 10 13 19 29 19 34 0 5 6 17 14 25 7 9 24 36 37 61 13 25
26 47 29 50 5 5 30 56 79 163 47 101 107 288 135 417 40 188 48 258 49 455 0
188 -10 308 -37 445 -11 54 -47 203 -53 220 -3 8 -7 20 -9 25 -11 45 -82 223
-121 302 -66 136 -192 338 -245 395 -7 7 -26 31 -43 53 -37 50 -225 239 -284
285 -24 19 -52 43 -63 53 -10 9 -20 17 -23 17 -3 0 -31 20 -62 44 -65 49 -300
186 -319 186 -7 0 -14 4 -16 10 -1 5 -12 11 -23 13 -11 2 -46 16 -79 30 -32
15 -64 27 -72 27 -7 0 -16 5 -19 10 -3 6 -16 10 -29 10 -12 0 -26 3 -30 7 -3
4 -12 8 -19 9 -7 2 -46 12 -87 24 -81 23 -101 28 -140 35 -14 2 -50 8 -80 14
-30 5 -77 13 -105 16 -51 7 -420 16 -427 10z"/>
</g>
</svg>
